<svg width="78" height="18" viewBox="0 0 78 18" fill="none" xmlns="http://www.w3.org/2000/svg">
<path d="M11.5562 13.5001H9.3562L8.1562 9.7001H3.9562L2.7562 13.5001H0.6562L4.7562 0.600098H7.3562L11.5562 13.5001ZM7.7562 8.1001L6.6562 4.7001C6.5563 4.4001 6.3562 3.5001 5.9562 2.3001C5.8562 2.8001 5.6562 3.7001 5.3562 4.7001L4.2562 8.1001H7.7562Z" fill="#31C5A1"/>
<path d="M22.2559 8.8001C22.2559 10.4001 21.8559 11.6001 20.9559 12.6001C20.1559 13.4001 19.2559 13.8001 18.0559 13.8001C16.8559 13.8001 15.9559 13.4001 15.4559 12.5001V17.4001H13.3559V7.4001C13.3559 6.4001 13.3559 5.4001 13.2559 4.3001H15.0559L15.1559 5.8001C15.8559 4.7001 16.8559 4.1001 18.2559 4.1001C19.3559 4.1001 20.2559 4.5001 20.9559 5.4001C21.8559 6.2001 22.2559 7.3001 22.2559 8.8001ZM20.1559 8.8001C20.1559 7.9001 19.9559 7.1001 19.5559 6.6001C19.1559 6.0001 18.5559 5.7001 17.7559 5.7001C17.2559 5.7001 16.7559 5.9001 16.3559 6.2001C15.9559 6.5001 15.6559 7.0001 15.5559 7.5001C15.4559 7.8001 15.4559 8.0001 15.4559 8.1001V9.7001C15.4559 10.4001 15.6559 10.9001 16.0559 11.4001C16.4559 11.9001 17.0559 12.1001 17.6559 12.1001C18.4559 12.1001 19.0559 11.8001 19.4559 11.2001C19.8559 10.6001 20.1559 9.8001 20.1559 8.8001Z" fill="#31C5A1"/>
<path d="M32.9551 8.8001C32.9551 10.4001 32.5551 11.6001 31.6551 12.6001C30.8551 13.4001 29.9551 13.8001 28.7551 13.8001C27.5551 13.8001 26.6551 13.4001 26.1551 12.5001V17.4001H24.0551V7.4001C24.0551 6.4001 24.0551 5.4001 23.9551 4.3001H25.7551L25.8551 5.8001C26.5551 4.7001 27.5551 4.1001 28.9551 4.1001C30.0551 4.1001 30.9551 4.5001 31.6551 5.4001C32.5551 6.2001 32.9551 7.3001 32.9551 8.8001ZM30.8551 8.8001C30.8551 7.9001 30.6551 7.1001 30.2551 6.6001C29.8551 6.0001 29.2551 5.7001 28.4551 5.7001C27.9551 5.7001 27.4551 5.9001 27.0551 6.2001C26.6551 6.5001 26.3551 7.0001 26.2551 7.5001C26.1551 7.8001 26.1551 8.0001 26.1551 8.1001V9.7001C26.1551 10.4001 26.3551 10.9001 26.7551 11.4001C27.1551 11.9001 27.7551 12.1001 28.3551 12.1001C29.1551 12.1001 29.7551 11.8001 30.1551 11.2001C30.5551 10.6001 30.8551 9.8001 30.8551 8.8001Z" fill="#31C5A1"/>
<path d="M44.8551 9.9C44.8551 11 44.4551 11.9 43.7551 12.6C42.9551 13.4 41.7551 13.7 40.2551 13.7C38.8551 13.7 37.7551 13.4 36.9551 12.9L37.4551 11.2C38.3551 11.7 39.3551 12 40.4551 12C41.2551 12 41.8551 11.8 42.2551 11.5C42.6551 11.1 42.8551 10.7 42.8551 10.1C42.8551 9.6 42.6551 9.1 42.3551 8.8C41.9551 8.4 41.3551 8.1 40.5551 7.8C38.2551 7 37.1551 5.7 37.1551 4.1C37.1551 3 37.5551 2.2 38.3551 1.5C39.1551 0.8 40.1551 0.5 41.5551 0.5C42.7551 0.5 43.6551 0.7 44.4551 1.1L43.9551 2.8C43.2551 2.4 42.4551 2.2 41.4551 2.2C40.7551 2.2 40.1551 2.4 39.7551 2.7C39.4551 3 39.2551 3.4 39.2551 3.9C39.2551 4.4 39.4551 4.8 39.8551 5.2C40.1551 5.5 40.8551 5.8 41.7551 6.2C42.8551 6.6 43.6551 7.2 44.2551 7.8C44.6551 8.3 44.8551 9 44.8551 9.9Z" fill="#31C5A1"/>
<path d="M51.7566 5.7999H49.4566V10.2999C49.4566 11.3999 49.8566 11.9999 50.6566 11.9999C51.0566 11.9999 51.3566 11.9999 51.5566 11.8999L51.6566 13.4999C51.2566 13.6999 50.7566 13.6999 50.0566 13.6999C49.2566 13.6999 48.5566 13.4999 48.1566 12.9999C47.6566 12.4999 47.4566 11.6999 47.4566 10.4999V5.7999H46.0566V4.1999H47.4566V2.4999L49.4566 1.8999V4.1999H51.7566V5.7999Z" fill="#31C5A1"/>
<path d="M62.055 8.8C62.055 10.2 61.655 11.4 60.855 12.3C59.9551 13.2 58.8551 13.7 57.4551 13.7C56.0551 13.7 54.9551 13.2 54.1551 12.3C53.3551 11.4 52.9551 10.3 52.9551 8.9C52.9551 7.5 53.3551 6.3 54.2551 5.4C55.0551 4.5 56.2551 4 57.6551 4C59.0551 4 60.155 4.5 60.955 5.4C61.655 6.3 62.055 7.4 62.055 8.8ZM59.8551 8.9C59.8551 8 59.6551 7.3 59.2551 6.7C58.8551 6 58.1551 5.6 57.3551 5.6C56.5551 5.6 55.8551 6 55.4551 6.7C55.0551 7.3 54.8551 8.1 54.8551 8.9C54.8551 9.8 55.0551 10.5 55.4551 11.1C55.8551 11.8 56.5551 12.2 57.3551 12.2C58.1551 12.2 58.7551 11.8 59.2551 11.1C59.6551 10.5 59.8551 9.7 59.8551 8.9Z" fill="#31C5A1"/>
<path d="M68.756 5.9999C68.556 5.9999 68.356 5.8999 68.056 5.8999C67.356 5.8999 66.756 6.1999 66.356 6.6999C66.056 7.1999 65.856 7.7999 65.856 8.4999V13.3999H63.756V6.9999C63.756 5.8999 63.756 4.9999 63.656 4.0999H65.456L65.556 5.8999H65.656C65.856 5.2999 66.256 4.7999 66.656 4.3999C67.156 4.0999 67.656 3.8999 68.156 3.8999C68.356 3.8999 68.556 3.8999 68.656 3.8999V5.9999H68.756Z" fill="#31C5A1"/>
<path d="M77.956 8.4C77.956 8.8 77.956 9.1 77.856 9.3H71.656C71.656 10.2 71.956 10.9 72.556 11.4C73.056 11.8 73.756 12.1 74.556 12.1C75.456 12.1 76.356 12 77.056 11.7L77.356 13.1C76.456 13.5 75.456 13.7 74.256 13.7C72.856 13.7 71.656 13.3 70.856 12.4C70.056 11.6 69.656 10.4 69.656 9C69.656 7.6 70.056 6.4 70.756 5.5C71.556 4.5 72.656 4 74.056 4C75.356 4 76.456 4.5 77.056 5.5C77.656 6.3 77.956 7.3 77.956 8.4ZM75.956 7.9C75.956 7.3 75.856 6.8 75.556 6.3C75.156 5.7 74.656 5.4 73.956 5.4C73.256 5.4 72.756 5.7 72.356 6.2C72.056 6.6 71.856 7.2 71.756 7.8H75.956V7.9Z" fill="#31C5A1"/>
</svg>
