<svg width="82" height="18" viewBox="0 0 82 18" fill="none" xmlns="http://www.w3.org/2000/svg">
<path fill-rule="evenodd" clip-rule="evenodd" d="M33.2996 16.6998C32.7996 16.2998 32.3996 15.5998 32.1996 15.1998L33.7996 14.4998C33.8996 14.6998 34.0996 14.9998 34.2996 15.2998C34.6996 15.6998 35.2996 16.0998 35.8996 16.0998C36.4996 16.0998 37.1996 15.7998 37.5996 15.2998C37.8996 14.7998 38.0996 14.2998 38.0996 13.5998V12.9998C36.8996 14.4998 34.3996 14.2998 32.9996 12.6998C31.4996 11.0998 31.4996 8.3998 32.9996 6.7998C34.4996 5.2998 36.6996 5.0998 37.9996 6.4998V5.7998H39.6996V13.3998C39.6996 15.2998 38.9996 16.3998 38.0996 17.0998C37.4996 17.5998 36.5996 17.7998 35.7996 17.7998C34.8996 17.5998 33.9996 17.2998 33.2996 16.6998ZM75.2 17.0998L76.9 13.0998L73.9 6.1998H75.6L77.7 11.0998L79.8 6.1998H81.5L76.9 17.0998H75.2ZM67.1 13.2998C66.6 12.7998 66.4 12.0998 66.4 11.3998C66.4 10.7998 66.6 10.1998 67 9.7998C67.7 9.0998 68.7 8.7998 69.8 8.7998C70.5 8.7998 71.1 8.8998 71.6 9.1998C71.6 7.9998 70.6 7.4998 69.8 7.4998C69.1 7.4998 68.4 7.8998 68.1 8.5998L66.6 7.9998C66.9 7.2998 67.7 5.9998 69.7 5.9998C70.7 5.9998 71.7 6.2998 72.3 6.9998C72.9 7.6998 73.1 8.4998 73.1 9.5998V13.7998H71.4V13.0998C71.2 13.3998 70.8 13.5998 70.5 13.7998C70.1 13.9998 69.6 14.0998 69.1 14.0998C68.5 13.9998 67.6 13.7998 67.1 13.2998ZM13.7996 9.6998C13.7996 7.6998 15.2996 5.4998 17.9996 5.4998C20.5996 5.4998 22.1996 7.6998 22.1996 9.6998C22.1996 11.6998 20.6996 13.8998 17.9996 13.8998C15.2996 13.8998 13.7996 11.6998 13.7996 9.6998ZM22.7996 9.6998C22.7996 7.6998 24.2996 5.4998 26.9996 5.4998C29.5996 5.4998 31.1996 7.6998 31.1996 9.6998C31.1996 11.6998 29.6996 13.8998 26.9996 13.8998C24.3996 13.8998 22.7996 11.6998 22.7996 9.6998ZM2.4996 11.8998C-0.000400305 9.3998 0.099602 5.2998 2.5996 2.6998C3.8996 1.3998 5.4996 0.799805 7.1996 0.799805C8.7996 0.799805 10.3996 1.3998 11.5996 2.5998L10.3996 3.8998C8.5996 2.0998 5.6996 2.1998 3.9996 3.9998C2.1996 5.8998 2.1996 8.7998 3.9996 10.6998C5.7996 12.5998 8.7996 12.6998 10.5996 10.7998C11.1996 10.1998 11.3996 9.3998 11.4996 8.5998H7.1996V6.7998H13.0996C13.1996 7.1998 13.1996 7.6998 13.1996 8.1998C13.1996 9.6998 12.5996 11.1998 11.5996 12.1998C10.4996 13.2998 8.8996 13.8998 7.2996 13.8998C5.5996 13.7998 3.7996 13.1998 2.4996 11.8998ZM44.7996 12.5998C43.2996 10.9998 43.2996 8.2998 44.7996 6.5998C46.2996 4.9998 48.7996 4.9998 50.1996 6.5998C50.6996 7.0998 50.9996 7.79981 51.2996 8.49981L45.7996 10.7998C46.0996 11.4998 46.7996 12.0998 47.7996 12.0998C48.6996 12.0998 49.2996 11.7998 49.8996 10.8998L51.3996 11.8998C51.1996 12.0998 50.9996 12.2998 50.8996 12.4998C49.1996 14.1998 46.2996 14.1998 44.7996 12.5998ZM55.1996 13.7998V2.6998H58.7996C60.9 2.6998 62.6 4.1998 62.6 5.9998C62.6 7.7998 61.1 9.2998 59.1996 9.2998H56.9996V13.7998H55.1996ZM63.6 13.7998V2.6998H65.3V13.7998H63.6ZM40.9996 13.5998V1.1998H42.7996V13.5998H40.9996ZM71.5 10.4998C71.1 10.1998 70.5 10.0998 69.9 10.0998C68.7 10.0998 68 10.6998 68 11.3998C68 12.0998 68.7 12.4998 69.4 12.4998C70.4 12.4998 71.5 11.6998 71.5 10.4998ZM20.2996 9.6998C20.2996 8.4998 19.4996 7.1998 17.9996 7.1998C16.4996 7.1998 15.6996 8.4998 15.6996 9.6998C15.6996 10.8998 16.4996 12.1998 17.9996 12.1998C19.3996 12.1998 20.2996 10.8998 20.2996 9.6998ZM29.2996 9.6998C29.2996 8.4998 28.4996 7.1998 26.9996 7.1998C25.4996 7.1998 24.6996 8.4998 24.6996 9.6998C24.6996 10.8998 25.4996 12.1998 26.9996 12.1998C28.4996 12.1998 29.2996 10.8998 29.2996 9.6998ZM38.1996 10.3998C38.1996 10.2998 38.1996 10.1998 38.2996 10.0998C38.2996 9.9998 38.2996 9.7998 38.2996 9.6998C38.2996 9.5998 38.2996 9.3998 38.2996 9.2998V9.1998C38.2996 9.0998 38.1996 8.8998 38.1996 8.7998C37.8996 7.7998 36.9996 7.0998 36.0996 7.0998C34.8996 7.0998 33.8996 8.2998 33.8996 9.5998C33.8996 10.9998 34.8996 12.0998 36.1996 12.0998C36.9996 12.1998 37.7996 11.4998 38.1996 10.3998ZM45.4996 9.49981L49.1996 7.8998C48.7996 7.1998 48.1996 6.9998 47.6996 6.9998C46.1996 7.0998 45.2996 8.69981 45.4996 9.49981ZM60.8 6.0998C60.8 5.0998 59.9996 4.3998 58.8996 4.3998H56.8996V7.8998H58.9996C59.9996 7.8998 60.8 7.0998 60.8 6.0998Z" fill="#31C5A1"/>
</svg>
