<svg width="78" height="68" viewBox="0 0 78 68" fill="none" xmlns="http://www.w3.org/2000/svg">
<path d="M0 5C0 2.23858 2.23858 0 5 0H73C75.7614 0 78 2.23858 78 5V63C78 65.7614 75.7614 68 73 68H5C2.23858 68 0 65.7614 0 63V5Z" fill="#C0FEEF"/>
<path d="M22.2096 31.3183C14.9816 31.3183 9.10095 25.4376 9.10095 18.2096C9.10095 10.9816 14.9809 5.10095 22.2096 5.10095C24.7123 5.10095 27.1458 5.80859 29.247 7.14805C29.5835 7.36251 29.6824 7.80876 29.468 8.14525C29.2535 8.48174 28.8065 8.57994 28.4708 8.3662C26.602 7.17477 24.4372 6.54511 22.2096 6.54511C15.778 6.54511 10.5451 11.778 10.5451 18.2096C10.5451 24.6419 15.778 29.8741 22.2096 29.8741C28.6419 29.8741 33.8741 24.6412 33.8741 18.2096C33.8741 15.4917 32.9188 12.8453 31.1844 10.7585C30.9295 10.4516 30.9713 9.99666 31.2782 9.74177C31.5851 9.48687 32.0408 9.52948 32.2949 9.83564C34.2445 12.181 35.3183 15.1552 35.3183 18.2096C35.3183 25.4376 29.4376 31.3183 22.2096 31.3183Z" fill="#31C5A1"/>
<path d="M22.2096 35.9122C12.4478 35.9122 4.50635 27.9707 4.50635 18.2096C4.50635 8.44852 12.4478 0.506348 22.2096 0.506348C31.9714 0.506348 39.9129 8.4478 39.9129 18.2096C39.9129 27.9714 31.9707 35.9122 22.2096 35.9122ZM22.2096 1.95051C13.2443 1.95051 5.95051 9.24425 5.95051 18.2096C5.95051 27.175 13.2443 34.4687 22.2096 34.4687C31.175 34.4687 38.4687 27.175 38.4687 18.2096C38.4687 9.24425 31.1743 1.95051 22.2096 1.95051Z" fill="#31C5A1"/>
<path d="M22.4515 24.4881C18.9891 24.4881 16.1723 21.6713 16.1723 18.2089C16.1723 14.7465 18.9891 11.9297 22.4515 11.9297C24.0134 11.9297 25.5103 12.5066 26.6663 13.5551C26.9616 13.823 26.984 14.2793 26.7161 14.5747C26.4482 14.8693 25.9926 14.8931 25.6966 14.6245C24.8062 13.8179 23.6538 13.3738 22.4515 13.3738C19.7856 13.3738 17.6165 15.543 17.6165 18.2089C17.6165 20.8748 19.7856 23.0439 22.4515 23.0439C23.6538 23.0439 24.8062 22.5999 25.6966 21.7933C25.9926 21.5254 26.449 21.5485 26.7169 21.8438C26.9847 22.1392 26.9616 22.5963 26.6663 22.8642C25.5095 23.9112 24.0127 24.4881 22.4515 24.4881Z" fill="#31C5A1"/>
<path d="M22.4515 13.3746C22.0529 13.3746 21.7294 13.0511 21.7294 12.6525V10.5216C21.7294 10.123 22.0529 9.79953 22.4515 9.79953C22.8501 9.79953 23.1736 10.123 23.1736 10.5216V12.6525C23.1736 13.0511 22.8501 13.3746 22.4515 13.3746Z" fill="#31C5A1"/>
<path d="M22.4515 26.6197C22.0529 26.6197 21.7294 26.2962 21.7294 25.8976V23.766C21.7294 23.3674 22.0529 23.0439 22.4515 23.0439C22.8501 23.0439 23.1736 23.3674 23.1736 23.766V25.8976C23.1736 26.2962 22.8501 26.6197 22.4515 26.6197Z" fill="#31C5A1"/>
<path d="M51.7904 60.899C44.5616 60.899 38.6817 55.0184 38.6817 47.7911C38.6817 40.5623 44.5624 34.6824 51.7904 34.6824C54.2939 34.6824 56.7273 35.3901 58.8278 36.7303C59.1636 36.9447 59.2625 37.391 59.048 37.7275C58.8343 38.0639 58.3888 38.1636 58.0508 37.9477C56.1828 36.757 54.018 36.1273 51.7904 36.1273C45.3588 36.1273 40.1259 41.3602 40.1259 47.7918C40.1259 54.2234 45.3588 59.4556 51.7904 59.4556C58.222 59.4556 63.4542 54.2234 63.4542 47.7918C63.4542 45.0732 62.4996 42.4268 60.7644 40.3399C60.5095 40.0331 60.5521 39.5781 60.859 39.3233C61.1652 39.0676 61.6208 39.111 61.8757 39.4178C63.8246 41.7639 64.8983 44.7374 64.8983 47.7925C64.8991 55.0184 59.0184 60.899 51.7904 60.899Z" fill="#31C5A1"/>
<path d="M51.7904 65.4937C42.0286 65.4937 34.0871 57.5522 34.0871 47.7904C34.0871 38.0286 42.0293 30.0871 51.7904 30.0871C61.5515 30.0871 69.4937 38.0293 69.4937 47.7904C69.4937 57.5515 61.5522 65.4937 51.7904 65.4937ZM51.7904 31.5313C42.825 31.5313 35.5313 38.825 35.5313 47.7904C35.5313 56.7558 42.825 64.0495 51.7904 64.0495C60.7557 64.0495 68.0495 56.7558 68.0495 47.7904C68.0495 38.825 60.7557 31.5313 51.7904 31.5313Z" fill="#31C5A1"/>
<path d="M51.7911 48.5125C51.7658 48.5125 51.7406 48.511 51.7146 48.5081C48.5064 48.1688 47.8327 46.3708 47.8327 44.9216C47.8327 44.5223 48.1554 44.1995 48.5548 44.1995C48.9541 44.1995 49.2768 44.5223 49.2768 44.9216C49.2768 45.7953 49.5707 46.8293 51.8669 47.0726C52.2634 47.1145 52.5507 47.4698 52.5089 47.8669C52.4699 48.2381 52.1558 48.5125 51.7911 48.5125Z" fill="#31C5A1"/>
<path d="M48.5548 45.6444C48.1554 45.6444 47.8327 45.3216 47.8327 44.9223C47.8327 42.9423 49.6083 41.3307 51.7904 41.3307C53.1833 41.3307 54.4881 42.0058 55.1979 43.0918C55.4167 43.4261 55.3221 43.8731 54.9885 44.0912C54.6542 44.3093 54.2072 44.2161 53.9891 43.8818C53.5429 43.1994 52.701 42.7748 51.7904 42.7748C50.404 42.7748 49.2768 43.7381 49.2768 44.9223C49.2768 45.3209 48.9541 45.6444 48.5548 45.6444Z" fill="#31C5A1"/>
<path d="M51.7904 54.2501C50.3982 54.2501 49.0934 53.5757 48.3836 52.4897C48.1648 52.1561 48.2587 51.7084 48.593 51.4903C48.9274 51.2716 49.375 51.3647 49.5924 51.6998C50.0379 52.3814 50.8806 52.8053 51.7904 52.8053C53.1768 52.8053 54.304 51.842 54.304 50.6585C54.304 50.2592 54.6267 49.9364 55.026 49.9364C55.4254 49.9364 55.7481 50.2592 55.7481 50.6585C55.7489 52.6392 53.9733 54.2501 51.7904 54.2501Z" fill="#31C5A1"/>
<path d="M55.0268 51.3813C54.6275 51.3813 54.3047 51.0585 54.3047 50.6592C54.3047 49.7848 54.0108 48.7508 51.7153 48.5081C51.3182 48.4663 51.0308 48.111 51.0727 47.7146C51.1145 47.3174 51.4756 47.0308 51.8662 47.0719C55.0751 47.4099 55.7488 49.2086 55.7488 50.6585C55.7488 51.0585 55.4261 51.3813 55.0268 51.3813Z" fill="#31C5A1"/>
<path d="M51.7904 42.7748C51.3911 42.7748 51.0683 42.452 51.0683 42.0527V40.1024C51.0683 39.7031 51.3911 39.3803 51.7904 39.3803C52.1897 39.3803 52.5125 39.7031 52.5125 40.1024V42.0527C52.5125 42.452 52.1897 42.7748 51.7904 42.7748Z" fill="#31C5A1"/>
<path d="M51.7904 56.2012C51.3911 56.2012 51.0683 55.8784 51.0683 55.4791V53.5281C51.0683 53.1287 51.3911 52.806 51.7904 52.806C52.1897 52.806 52.5125 53.1287 52.5125 53.5281V55.4791C52.5125 55.8784 52.1897 56.2012 51.7904 56.2012Z" fill="#31C5A1"/>
<path d="M59.7593 27.5837C59.4451 27.5837 59.1563 27.3764 59.0653 27.0594C57.9887 23.2909 55.9496 19.8285 53.1667 17.0456C50.3838 14.2634 46.9221 12.2236 43.1528 11.1469C42.7694 11.0372 42.547 10.6379 42.656 10.2544C42.7658 9.87029 43.1687 9.65006 43.5485 9.75837C47.5532 10.9021 51.2322 13.0691 54.187 16.0246C57.1424 18.9801 59.3094 22.6591 60.4539 26.6623C60.5629 27.0457 60.3413 27.445 59.9571 27.5548C59.8914 27.5743 59.825 27.5837 59.7593 27.5837Z" fill="#31C5A1"/>
<path d="M44.5833 14.6591C44.2858 14.6591 44.0071 14.4743 43.9031 14.1775L42.6705 10.6935C42.5369 10.3173 42.7341 9.90496 43.1095 9.7721L46.5936 8.53878C46.972 8.40592 47.3828 8.60305 47.515 8.97853C47.6485 9.35473 47.4514 9.76704 47.0759 9.89991L44.2721 10.892L45.2635 13.6952C45.3971 14.0714 45.2 14.4837 44.8245 14.6165C44.7451 14.6461 44.6627 14.6591 44.5833 14.6591Z" fill="#31C5A1"/>
<path d="M30.65 56.2698C30.5843 56.2698 30.5171 56.2604 30.4514 56.2424C26.4468 55.0979 22.7678 52.9309 19.813 49.9754C16.8575 47.0207 14.6906 43.3416 13.5468 39.337C13.437 38.9543 13.6594 38.5542 14.0429 38.4445C14.427 38.3391 14.8256 38.5571 14.9354 38.9413C16.0127 42.7106 18.0519 46.1737 20.834 48.9551C23.6162 51.7373 27.0786 53.7772 30.8486 54.8538C31.232 54.9636 31.4537 55.3636 31.3447 55.7463C31.2529 56.0626 30.9641 56.2698 30.65 56.2698Z" fill="#31C5A1"/>
<path d="M27.1652 57.5024C26.8677 57.5024 26.5897 57.3175 26.4843 57.0215C26.3515 56.6453 26.5486 56.2322 26.9241 56.1001L29.7272 55.1079L28.7351 52.3048C28.6022 51.9286 28.7986 51.5156 29.1748 51.3835C29.5488 51.2499 29.9633 51.4463 30.0962 51.8225L31.3295 55.3065C31.393 55.487 31.3829 55.6856 31.2999 55.8589C31.2168 56.0322 31.0695 56.1651 30.889 56.2286L27.405 57.4612C27.3263 57.4886 27.2454 57.5024 27.1652 57.5024Z" fill="#31C5A1"/>
</svg>
