<svg width="77" height="8" viewBox="0 0 77 8" fill="none" xmlns="http://www.w3.org/2000/svg">
<path d="M6.0555 3.7001C6.0555 4.8001 5.7555 5.7001 5.0555 6.3001C4.4555 6.8001 3.5555 7.1001 2.3555 7.1001C1.7555 7.1001 1.2555 7.1001 0.855499 7.0001V0.700098C1.3555 0.600098 1.9555 0.600098 2.6555 0.600098C3.7555 0.600098 4.5555 0.800098 5.1555 1.3001C5.7555 1.9001 6.0555 2.7001 6.0555 3.7001ZM5.0555 3.7001C5.0555 3.0001 4.8555 2.4001 4.4555 2.0001C4.0555 1.6001 3.4555 1.4001 2.7555 1.4001C2.4555 1.4001 2.1555 1.4001 1.9555 1.5001V6.2001C2.0555 6.2001 2.3555 6.2001 2.6555 6.2001C3.4555 6.2001 4.0555 6.0001 4.4555 5.6001C4.7555 5.2001 5.0555 4.5001 5.0555 3.7001Z" fill="#545659"/>
<path d="M11.7559 4.6998C11.7559 5.3998 11.5559 5.9998 11.1559 6.3998C10.7559 6.8998 10.1559 7.0998 9.45589 7.0998C8.75589 7.0998 8.25589 6.8998 7.85589 6.3998C7.45589 5.9998 7.25589 5.3998 7.25589 4.6998C7.25589 3.9998 7.45589 3.3998 7.85589 2.9998C8.25589 2.4998 8.85589 2.2998 9.55589 2.2998C10.2559 2.2998 10.7559 2.4998 11.1559 2.9998C11.5559 3.3998 11.7559 3.9998 11.7559 4.6998ZM10.7559 4.6998C10.7559 4.2998 10.6559 3.8998 10.4559 3.5998C10.2559 3.1998 9.95589 3.0998 9.55589 3.0998C9.15589 3.0998 8.85589 3.2998 8.65589 3.5998C8.45589 3.8998 8.35589 4.2998 8.35589 4.6998C8.35589 5.0998 8.45589 5.49981 8.65589 5.79981C8.85589 6.19981 9.15589 6.29981 9.55589 6.29981C9.95589 6.29981 10.2559 6.09981 10.4559 5.69981C10.6559 5.49981 10.7559 5.0998 10.7559 4.6998Z" fill="#545659"/>
<path d="M19.3559 2.3999L17.9559 6.9999H17.0559L16.4559 4.9999C16.2559 4.4999 16.1559 3.9999 16.0559 3.4999C15.9559 3.9999 15.8559 4.4999 15.6559 4.9999L15.0559 6.9999H14.1559L12.7559 2.3999H13.7559L14.2559 4.5999C14.3559 5.0999 14.4559 5.5999 14.5559 6.0999C14.6559 5.6999 14.7559 5.1999 14.9559 4.5999L15.6559 2.3999H16.4559L17.0559 4.4999C17.2559 4.9999 17.3559 5.4999 17.4559 5.9999C17.5559 5.4999 17.6559 4.9999 17.7559 4.4999L18.3559 2.3999H19.3559Z" fill="#545659"/>
<path d="M24.6559 6.9998H23.6559V4.39981C23.6559 3.59981 23.3559 3.1998 22.7559 3.1998C22.4559 3.1998 22.2559 3.2998 22.0559 3.4998C21.8559 3.6998 21.7559 3.9998 21.7559 4.2998V6.9998H20.7559V3.6998C20.7559 3.2998 20.7559 2.89981 20.7559 2.39981H21.6559V3.0998C21.7559 2.8998 21.9559 2.6998 22.1559 2.4998C22.4559 2.3998 22.7559 2.2998 23.0559 2.2998C23.4559 2.2998 23.8559 2.3998 24.1559 2.6998C24.5559 2.9998 24.6559 3.4998 24.6559 4.1998V6.9998Z" fill="#545659"/>
<path d="M27.4551 6.9998H26.4551V0.299805H27.4551V6.9998Z" fill="#545659"/>
<path d="M33.4551 4.6998C33.4551 5.3998 33.2551 5.9998 32.8551 6.3998C32.4551 6.8998 31.8551 7.0998 31.1551 7.0998C30.4551 7.0998 29.9551 6.8998 29.5551 6.3998C29.1551 5.9998 28.9551 5.3998 28.9551 4.6998C28.9551 3.9998 29.1551 3.3998 29.5551 2.9998C29.9551 2.4998 30.5551 2.2998 31.2551 2.2998C31.9551 2.2998 32.4551 2.4998 32.8551 2.9998C33.2551 3.3998 33.4551 3.9998 33.4551 4.6998ZM32.3551 4.6998C32.3551 4.2998 32.2551 3.8998 32.0551 3.5998C31.8551 3.1998 31.5551 3.0998 31.1551 3.0998C30.7551 3.0998 30.4551 3.2998 30.2551 3.5998C30.0551 3.8998 29.9551 4.2998 29.9551 4.6998C29.9551 5.0998 30.0551 5.49981 30.2551 5.79981C30.4551 6.19981 30.7551 6.29981 31.1551 6.29981C31.5551 6.29981 31.8551 6.09981 32.0551 5.69981C32.2551 5.49981 32.3551 5.0998 32.3551 4.6998Z" fill="#545659"/>
<path d="M38.3562 6.9998H37.4562L37.3562 6.4998C37.0562 6.8998 36.5563 7.0998 36.0563 7.0998C35.6563 7.0998 35.2563 6.99981 35.0563 6.69981C34.8563 6.39981 34.6562 6.09981 34.6562 5.79981C34.6562 5.19981 34.8562 4.7998 35.3562 4.4998C35.8562 4.1998 36.4562 4.0998 37.3562 4.0998V3.9998C37.3562 3.3998 37.0562 3.0998 36.4562 3.0998C35.9562 3.0998 35.6562 3.19981 35.2562 3.39981L35.0563 2.6998C35.4563 2.3998 35.9562 2.2998 36.6562 2.2998C37.8563 2.2998 38.4562 2.8998 38.4562 4.1998V5.8998C38.2562 6.3998 38.3562 6.6998 38.3562 6.9998ZM37.2562 5.3998V4.6998C36.1562 4.6998 35.5563 4.9998 35.5563 5.5998C35.5563 5.7998 35.6562 5.9998 35.7562 6.0998C35.8562 6.1998 36.0562 6.29981 36.2562 6.29981C36.4562 6.29981 36.6562 6.1998 36.8562 6.0998C37.0562 5.9998 37.1562 5.7998 37.2562 5.5998C37.2562 5.5998 37.2562 5.4998 37.2562 5.3998Z" fill="#545659"/>
<path d="M44.1555 6.9998H43.2555V6.29981C42.9555 6.89981 42.4555 7.0998 41.7555 7.0998C41.1555 7.0998 40.7555 6.8998 40.3555 6.4998C39.9555 6.0998 39.8555 5.4998 39.8555 4.7998C39.8555 4.0998 40.0555 3.4998 40.4555 2.9998C40.7555 2.4998 41.2555 2.2998 41.7555 2.2998C42.3555 2.2998 42.7555 2.4998 43.0555 2.89981V0.299805H44.0555V5.69981C44.0555 6.19981 44.1555 6.5998 44.1555 6.9998ZM43.0555 5.0998V4.2998C43.0555 4.1998 43.0555 4.0998 43.0555 3.9998C42.9555 3.7998 42.8555 3.59981 42.6555 3.39981C42.4555 3.19981 42.2555 3.1998 41.9555 3.1998C41.5555 3.1998 41.2555 3.3998 41.0555 3.6998C40.8555 3.9998 40.7555 4.39981 40.7555 4.89981C40.7555 5.39981 40.8555 5.6998 41.0555 5.9998C41.2555 6.2998 41.5555 6.4998 41.9555 6.4998C42.2555 6.4998 42.5555 6.39981 42.7555 6.0998C42.9555 5.6998 43.0555 5.39981 43.0555 5.0998Z" fill="#545659"/>
<path d="M52.855 4.6998C52.855 5.3998 52.655 5.9998 52.255 6.3998C51.855 6.8998 51.255 7.0998 50.5555 7.0998C49.8555 7.0998 49.3555 6.8998 48.9555 6.3998C48.5555 5.9998 48.3555 5.3998 48.3555 4.6998C48.3555 3.9998 48.5555 3.3998 48.9555 2.9998C49.3555 2.4998 49.9555 2.2998 50.6555 2.2998C51.355 2.2998 51.855 2.4998 52.255 2.9998C52.655 3.3998 52.855 3.9998 52.855 4.6998ZM51.755 4.6998C51.755 4.2998 51.655 3.8998 51.455 3.5998C51.255 3.1998 50.9555 3.0998 50.5555 3.0998C50.1555 3.0998 49.8555 3.2998 49.6555 3.5998C49.4555 3.8998 49.3555 4.2998 49.3555 4.6998C49.3555 5.0998 49.4555 5.49981 49.6555 5.79981C49.8555 6.19981 50.1555 6.29981 50.5555 6.29981C50.9555 6.29981 51.255 6.09981 51.455 5.69981C51.655 5.49981 51.755 5.0998 51.755 4.6998Z" fill="#545659"/>
<path d="M58.255 6.99971H57.255V4.39971C57.255 3.59971 56.955 3.19971 56.355 3.19971C56.055 3.19971 55.855 3.29971 55.655 3.49971C55.455 3.69971 55.355 3.99971 55.355 4.29971V6.99971H54.355V3.69971C54.355 3.29971 54.355 2.89971 54.355 2.39971H55.255V3.09971C55.355 2.89971 55.555 2.69971 55.755 2.49971C56.055 2.29971 56.355 2.19971 56.655 2.19971C57.055 2.19971 57.455 2.29971 57.755 2.59971C58.155 2.89971 58.255 3.39971 58.255 4.09971V6.99971Z" fill="#545659"/>
<path d="M65.155 3.1998H64.055V5.3998C64.055 5.9998 64.255 6.19981 64.655 6.19981C64.855 6.19981 64.955 6.19981 65.155 6.19981V6.9998C64.955 7.0998 64.655 7.0998 64.355 7.0998C63.955 7.0998 63.655 6.99981 63.455 6.69981C63.255 6.49981 63.155 5.9998 63.155 5.4998V3.1998H62.455V2.39981H63.155V1.5998L64.155 1.2998V2.39981H65.255V3.1998H65.155Z" fill="#545659"/>
<path d="M70.556 6.9998H69.556V4.39981C69.556 3.59981 69.256 3.1998 68.656 3.1998C68.156 3.1998 67.856 3.39981 67.656 3.89981C67.656 3.9998 67.656 4.0998 67.656 4.2998V6.9998H66.656V0.299805H67.656V3.0998C67.956 2.5998 68.456 2.2998 69.056 2.2998C69.456 2.2998 69.856 2.3998 70.056 2.6998C70.356 2.9998 70.556 3.5998 70.556 4.1998V6.9998Z" fill="#545659"/>
<path d="M76.057 4.4999C76.057 4.6999 76.057 4.7999 76.057 4.9999H73.057C73.057 5.4999 73.257 5.7999 73.457 5.9999C73.757 6.1999 74.057 6.2999 74.457 6.2999C74.957 6.2999 75.357 6.1999 75.657 6.0999L75.857 6.7999C75.457 6.9999 74.957 7.0999 74.357 7.0999C73.657 7.0999 73.057 6.8999 72.657 6.4999C72.257 6.0999 72.057 5.4999 72.057 4.7999C72.057 4.0999 72.257 3.4999 72.657 3.0999C73.057 2.5999 73.557 2.3999 74.257 2.3999C74.957 2.3999 75.457 2.5999 75.757 3.0999C75.957 3.3999 76.057 3.8999 76.057 4.4999ZM75.057 4.1999C75.057 3.8999 74.957 3.5999 74.857 3.3999C74.657 3.0999 74.457 2.9999 74.057 2.9999C73.757 2.9999 73.457 3.0999 73.257 3.3999C73.057 3.5999 72.957 3.8999 72.957 4.1999H75.057Z" fill="#545659"/>
</svg>
