<svg width="41" height="6" viewBox="0 0 41 6" fill="none" xmlns="http://www.w3.org/2000/svg">
<path d="M0.0996094 2.9C0.0996094 1.1 1.39961 0 2.99961 0C4.09961 0 4.79961 0.5 5.29961 1.2L4.49961 1.7C4.19961 1.2 3.69961 0.8 3.09961 0.8C1.99961 0.8 1.19961 1.6 1.19961 2.8C1.19961 4 1.99961 4.8 3.09961 4.8C3.69961 4.8 4.19961 4.5 4.39961 4.3V3.4H2.69961V2.6H5.39961V4.7C4.89961 5.3 4.09961 5.7 3.09961 5.7C1.39961 5.8 0.0996094 4.6 0.0996094 2.9Z" fill="#545659"/>
<path d="M6.59961 5.7V0H10.3996V0.9H7.49961V2.3H10.2996V3.2H7.49961V4.8H10.3996V5.7H6.59961Z" fill="#545659"/>
<path d="M13.2 5.7V0.9H11.5V0H15.9V0.9H14.2V5.6H13.2V5.7Z" fill="#545659"/>
<path d="M19.3008 5.7V0H20.3008V5.6H19.3008V5.7Z" fill="#545659"/>
<path d="M23.0008 5.7V0.9H21.3008V0H25.7008V0.9H24.0008V5.6H23.0008V5.7Z" fill="#545659"/>
<path d="M28.9004 2.9C28.9004 1.2 30.1004 0 31.8004 0C33.5004 0 34.7004 1.2 34.7004 2.9C34.7004 4.6 33.4004 5.8 31.7004 5.8C30.1004 5.8 28.9004 4.5 28.9004 2.9ZM33.6004 2.9C33.6004 1.7 32.9004 0.9 31.7004 0.9C30.6004 0.9 29.8004 1.8 29.8004 2.9C29.8004 4.1 30.5004 4.9 31.7004 4.9C32.9004 4.9 33.6004 4 33.6004 2.9Z" fill="#545659"/>
<path d="M39.7008 5.7L36.8008 1.7V5.7H35.8008V0H36.8008L39.7008 3.9V0H40.7008V5.6H39.7008V5.7Z" fill="#545659"/>
</svg>
